#!OML:ASF F:\VICON\USERDATA\INSTALL\rory3\rory3.ASF
:FULLY-SPECIFIED
:DEGREES
757
root -0.93365 14.0812 20.1073 -23.6704 -5.107 25.5914
lowerback -11.6672 -1.7268 4.67023
upperback -7.1814 -2.7371 2.97538
thorax -1.05669 -1.46407 0.186522
lowerneck -2.27378 -13.2223 -13.8473
upperneck 37.2158 -17.9135 -4.38186
head 14.0752 -10.4838 -1.84735
rclavicle 6.36111e-014 -1.59028e-014
rhumerus 16.8082 62.2787 -72.5451
rradius 54.4686
rwrist -13.6078
rhand -13.6621 -44.8595
rfingers 7.12502
rthumb -167.545 825.532
lclavicle 6.36111e-014 -1.59028e-014
lhumerus 49.1459 24.3526 51.5739
lradius 18.8913
lwrist 32.8728
lhand -30.1275 -5.45171
lfingers 7.12502
lthumb -3.44058 24.5003
rfemur -58.9623 -8.287 41.3558
rtibia 72.5213
rfoot -2.64105 -21.3272
rtoes 23.5167
lfemur -24.7062 -0.392735 -26.0986
ltibia 105.643
lfoot -18.7267 11.9941
ltoes -1.13803
758
root -0.924469 14.068 20.008 -23.4477 -5.11966 25.2624
lowerback -11.4064 -1.78498 4.99028
upperback -7.3207 -2.81679 3.21104
thorax -1.35383 -1.51529 0.260146
lowerneck -2.16902 -13.1004 -13.9022
upperneck 37.3152 -17.7058 -4.48912
head 14.0844 -10.4181 -1.84647
rclavicle 4.13472e-014 -1.59028e-014
rhumerus 15.5712 61.5255 -72.3664
rradius 54.2894
rwrist -13.6829
rhand -13.6245 -44.6401
rfingers 7.12502
rthumb -167.509 825.753
lclavicle 4.13472e-014 -1.59028e-014
lhumerus 48.6785 24.4759 51.2269
lradius 18.9213
lwrist 32.9726
lhand -30.5489 -7.21693
lfingers 7.12502
lthumb -3.84749 22.7281
rfemur -58.9289 -8.05676 41.8361
rtibia 72.4094
rfoot -2.43943 -21.339
rtoes 22.8106
lfemur -24.7473 0.0843695 -25.3833
ltibia 105.739
lfoot -18.7359 11.869
ltoes -3.30932
759
root -0.910398 14.0542 19.915 -23.339 -4.90341 25.1636
lowerback -11.6153 -1.88987 5.10365
upperback -7.09742 -2.98975 3.30187
thorax -1.01299 -1.59278 0.259075
lowerneck -1.97815 -13.0249 -14.0091
upperneck 37.0255 -17.6227 -4.31907
head 13.9412 -10.3705 -1.71481
rclavicle -1.59028e-014 -2.54444e-014
rhumerus 15.1723 60.5832 -71.4015
rradius 54.3328
rwrist -14.0898
rhand -13.6711 -44.241
rfingers 7.12502
rthumb -167.554 826.15
lclavicle -1.59028e-014 -2.54444e-014
lhumerus 48.4481 24.6236 50.6596
lradius 18.9774
lwrist 33.4361
lhand -31.1134 -8.4918
lfingers 7.12502
lthumb -4.39268 21.4426
rfemur -58.8484 -8.00248 41.9367
rtibia 72.2718
rfoot -2.37644 -21.4183
rtoes 22.8805
lfemur -24.6426 0.30932 -25.1538
ltibia 105.818
lfoot -18.6618 11.6326
ltoes -4.21049
760
root -0.891678 14.0471 19.8248 -23.2344 -4.28995 25.5661
lowerback -11.518 -2.05985 4.65841
upperback -7.18461 -3.15797 3.23947
thorax -1.13829 -1.66663 0.431419
lowerneck -1.7224 -12.9827 -14.2227
upperneck 36.989 -17.5702 -4.32345
head 13.8988 -10.3788 -1.65629
rclavicle -5.08889e-014 -3.81667e-014
rhumerus 13.9381 59.7235 -71.0515
rradius 54.394
rwrist -14.4461
rhand -14.2255 -44.1037
rfingers 7.12502
rthumb -168.088 826.255
lclavicle -5.08889e-014 -3.81667e-014
lhumerus 47.9045 24.5497 50.0583
lradius 19.1427
lwrist 33.9649
lhand -30.784 -7.64495
lfingers 7.12502
lthumb -4.0746 22.2958
rfemur -58.9834 -8.23681 41.3775
rtibia 72.2646
rfoot -2.32814 -21.3496
rtoes 22.8764
lfemur -24.4353 0.095464 -25.907
ltibia 105.716
lfoot -18.5616 11.4516
ltoes -1.84901
761
root -0.879407 14.0439 19.7298 -23.0084 -3.94931 25.6341
lowerback -11.4405 -2.09495 4.74477
upperback -7.26491 -3.20054 3.19658
thorax -1.27401 -1.6941 0.341305
lowerneck -1.77998 -13.0264 -14.297
upperneck 37.1614 -17.5752 -4.48869
head 13.9826 -10.4097 -1.72963
rclavicle -6.36111e-014 2.8625e-014
rhumerus 12.8085 58.6448 -70.6628
rradius 54.3856
rwrist -14.6298
rhand -15.1925 -44.3599
rfingers 7.12502
rthumb -169.021 825.947
lclavicle -6.36111e-014 2.8625e-014
lhumerus 47.6722 24.7109 50.0185
lradius 19.555
lwrist 33.9196
lhand -29.5389 -5.51207
lfingers 7.12502
lthumb -2.87213 24.4483
rfemur -59.1378 -8.24589 41.288
rtibia 72.1777
rfoot -2.03455 -21.3836
rtoes 22.0462
lfemur -24.2931 0.145476 -26.0053
ltibia 105.658
lfoot -18.629 11.0352
ltoes 0.367781
762
root -0.870227 14.0391 19.6303 -22.6478 -3.77784 25.4299
lowerback -11.5031 -2.08424 5.13274
upperback -7.21484 -3.22669 3.21555
thorax -1.21235 -1.71659 0.139309
lowerneck -2.08595 -13.1035 -14.1304
upperneck 37.1633 -17.6118 -4.59173
head 14.0136 -10.406 -1.8216
rclavicle 5.725e-014 3.18055e-015
rhumerus 12.387 57.4261 -69.6487
rradius 54.3496
rwrist -14.5245
rhand -15.9039 -44.688
rfingers 7.12502
rthumb -169.707 825.584
lclavicle 5.725e-014 3.18055e-015
lhumerus 47.6399 24.8743 49.879
lradius 19.8504
lwrist 34.0604
lhand -29.0546 -4.98203
lfingers 7.12502
lthumb -2.40444 24.9842
rfemur -59.3974 -8.057 41.5435
rtibia 72.0185
rfoot -1.69632 -21.5256
rtoes 21.3166
lfemur -24.4127 0.403887 -25.6113
ltibia 105.738
lfoot -18.5811 11.0527
ltoes -0.375092
763
root -0.852509 14.0351 19.5317 -22.3413 -3.33917 25.4919
lowerback -11.7528 -2.28628 5.17137
upperback -7.25306 -3.50826 3.26171
thorax -1.1277 -1.85465 0.128354
lowerneck -1.72808 -12.918 -14.2718
upperneck 36.9833 -17.3634 -4.5495
head 13.8686 -10.3162 -1.70182
rclavicle -1.27222e-014 2.22639e-014
rhumerus 11.9638 56.6837 -68.6856
rradius 54.2085
rwrist -13.9985
rhand -15.7623 -43.9579
rfingers 7.12502
rthumb -169.571 826.321
lclavicle -1.27222e-014 2.22639e-014
lhumerus 46.6097 24.4053 48.4769
lradius 19.7738
lwrist 34.6646
lhand -31.4885 -8.51263
lfingers 7.12502
lthumb -4.75481 21.414
rfemur -59.712 -8.12872 41.4141
rtibia 71.944
rfoot -1.50071 -21.4932
rtoes 20.9597
lfemur -24.5321 0.355037 -25.8318
ltibia 105.76
lfoot -18.3505 11.6376
ltoes -2.47006
764
root -0.835161 14.0296 19.4328 -22.0476 -3.04602 25.3485
lowerback -11.8328 -2.28417 5.4021
upperback -7.18626 -3.535 3.30169
thorax -1.02888 -1.87051 0.0333483
lowerneck -1.89597 -12.9957 -14.1593
upperneck 37.036 -17.4397 -4.60777
head 13.9093 -10.3332 -1.76719
rclavicle 9.54166e-015 -2.22639e-014
rhumerus 11.5685 55.3843 -67.525
rradius 54.0829
rwrist -13.1801
rhand -15.5702 -43.1479
rfingers 7.12502
rthumb -169.385 827.14
lclavicle 9.54166e-015 -2.22639e-014
lhumerus 45.777 22.9206 46.8183
lradius 19.4496
lwrist 34.6454
lhand -36.8917 -15.479
lfingers 7.12502
lthumb -9.97014 14.2649
rfemur -59.8558 -8.16041 41.5684
rtibia 71.8243
rfoot -1.49974 -21.5538
rtoes 21.3988
lfemur -24.6399 0.435652 -25.6477
ltibia 105.797
lfoot -18.3476 11.7093
ltoes -3.28586
765
root -0.829574 14.0322 19.336 -21.9255 -2.62173 25.3685
lowerback -11.8017 -2.38564 5.36793
upperback -7.15196 -3.66219 3.3457
thorax -1.00902 -1.92991 0.0853863
lowerneck -1.89698 -12.9798 -14.3042
upperneck 37.0434 -17.413 -4.53621
head 13.9397 -10.3265 -1.72001
rclavicle 1.90833e-014 -1.59028e-014
rhumerus 10.6405 54.1942 -66.7674
rradius 53.8938
rwrist -12.059
rhand -15.8153 -43.6615
rfingers 7.12502
rthumb -169.622 826.615
lclavicle 1.90833e-014 -1.59028e-014
lhumerus 45.2844 22.8327 46.3834
lradius 19.8539
lwrist 35.2901
lhand -37.4452 -17.1271
lfingers 7.12502
lthumb -10.5041 12.5905
rfemur -59.8767 -8.23782 41.3558
rtibia 71.7771
rfoot -2.25654 -21.6039
rtoes 23.6562
lfemur -24.4291 0.414244 -25.6477
ltibia 105.666
lfoot -18.4124 11.5075
ltoes -3.11567
766
root -0.819145 14.0322 19.2439 -21.936 -2.11787 25.5749
lowerback -11.6968 -2.54333 5.20112
upperback -7.12858 -3.844 3.29415
thorax -1.03877 -2.01561 0.110551
lowerneck -1.84532 -12.894 -14.4228
upperneck 37.126 -17.3038 -4.45999
head 13.9859 -10.2844 -1.66222
rclavicle 6.67916e-014 -3.18055e-014
rhumerus 9.1551 52.7565 -66.6124
rradius 53.4003
rwrist -10.763
rhand -16.1175 -44.0267
rfingers 7.12502
rthumb -169.913 826.235
lclavicle 6.67916e-014 -3.18055e-014
lhumerus 44.7613 22.7574 45.7737
lradius 20.1321
lwrist 35.8811
lhand -37.1091 -15.9532
lfingers 7.12502
lthumb -10.1799 13.7805
rfemur -59.8235 -8.44346 41.0264
rtibia 71.7814
rfoot -2.32239 -21.5578
rtoes 23.8107
lfemur -24.0203 0.311956 -25.9761
ltibia 105.497
lfoot -18.3719 11.4977
ltoes -2.42887
767
root -0.807828 14.0326 19.1526 -21.8825 -1.89537 25.5348
lowerback -11.5212 -2.62914 5.38726
upperback -7.19011 -3.95503 3.34421
thorax -1.21364 -2.07891 0.0613809
lowerneck -1.78894 -12.8471 -14.3801
upperneck 37.3095 -17.2062 -4.63463
head 14.0289 -10.2615 -1.72634
rclavicle 1.90833e-014 6.36111e-015
rhumerus 8.0592 51.6253 -66.1733
rradius 53.0593
rwrist -10.1928
rhand -16.2605 -43.9969
rfingers 7.12502
rthumb -170.051 826.258
lclavicle 1.90833e-014 6.36111e-015
lhumerus 44.2964 22.7582 45.4321
lradius 20.2534
lwrist 36.1204
lhand -36.6739 -14.7999
lfingers 7.12502
lthumb -9.76001 14.954
rfemur -59.7477 -8.43874 41.11
rtibia 71.7066
rfoot -1.9213 -21.5839
rtoes 22.9904
lfemur -23.7175 0.483091 -25.8276
ltibia 105.409
lfoot -18.357 11.5075
ltoes -2.26369
768
root -0.799143 14.0326 19.0564 -21.7466 -1.77164 25.4123
lowerback -11.3148 -2.66113 5.64771
upperback -7.23359 -4.00027 3.44754
thorax -1.38628 -2.11083 0.0343762
lowerneck -1.97484 -12.8621 -14.288
upperneck 37.5353 -17.1655 -4.81196
head 14.1378 -10.2509 -1.83293
rclavicle 1.11319e-013 -1.90833e-014
rhumerus 7.24175 50.4753 -65.338
rradius 52.7424
rwrist -10.0687
rhand -16.3408 -43.8077
rfingers 7.12502
rthumb -170.129 826.444
lclavicle 1.11319e-013 -1.90833e-014
lhumerus 44.1363 22.9108 45.3742
lradius 20.1931
lwrist 36.2336
lhand -36.5247 -14.9922
lfingers 7.12502
lthumb -9.61607 14.7684
rfemur -59.7551 -8.23434 41.2226
rtibia 71.6832
rfoot -2.03708 -21.69
rtoes 23.4066
lfemur -23.5891 0.744994 -25.4807
ltibia 105.345
lfoot -18.4836 11.4861
ltoes -3.18978
769
root -0.784679 14.0197 18.946 -21.4018 -1.67618 25.3119
lowerback -11.0583 -2.63025 5.90356
upperback -7.34648 -3.95334 3.54234
thorax -1.65643 -2.10083 0.0155324
lowerneck -2.18731 -12.902 -14.3046
upperneck 37.6863 -17.1905 -4.82188
head 14.2551 -10.2577 -1.87104
rclavicle 3.49861e-014 8.26944e-014
rhumerus 6.44894 49.1821 -64.397
rradius 52.4005
rwrist -10.1853
rhand -16.7994 -43.7173
rfingers 7.12502
rthumb -170.571 826.514
lclavicle 3.49861e-014 8.26944e-014
lhumerus 44.3274 23.3155 45.8433
lradius 19.9904
lwrist 35.5489
lhand -36.5488 -15.2552
lfingers 7.12502
lthumb -9.63934 14.5043
rfemur -60.0685 -7.92026 41.4677
rtibia 71.6092
rfoot -1.51814 -21.8013
rtoes 22.5885
lfemur -23.935 1.05669 -25.0962
ltibia 105.459
lfoot -18.7314 11.3679
ltoes -3.6461
770
root -0.770379 14.0291 18.867 -21.3793 -0.978065 26.0478
lowerback -11.0577 -2.76174 5.31021
upperback -7.341 -4.07516 3.29922
thorax -1.62568 -2.14603 0.0792189
lowerneck -2.151 -12.9178 -14.2913
upperneck 37.7347 -17.2002 -4.89615
head 14.2607 -10.2683 -1.90204
rclavicle -3.49861e-014 7.95139e-014
rhumerus 5.45629 47.8135 -63.7846
rradius 52.1938
rwrist -10.1414
rhand -17.3041 -43.7581
rfingers 7.12502
rthumb -171.058 826.451
lclavicle -3.49861e-014 7.95139e-014
lhumerus 44.2959 23.591 46.1072
lradius 19.8214
lwrist 34.6437
lhand -37.0303 -15.5415
lfingers 7.12502
lthumb -10.1039 14.1959
rfemur -60.0018 -8.29056 40.5218
rtibia 71.7239
rfoot -1.9469 -21.6391
rtoes 23.0238
lfemur -23.3304 0.64235 -26.3716
ltibia 105.106
lfoot -19.0026 11.9023
ltoes -2.97925
